<?xml version="1.0" standalone="no"?>
<!DOCTYPE svg PUBLIC "-//W3C//DTD SVG 20010904//EN"
 "http://www.w3.org/TR/2001/REC-SVG-20010904/DTD/svg10.dtd">
<svg version="1.0" xmlns="http://www.w3.org/2000/svg"
 width="225.000000pt" height="225.000000pt" viewBox="0 0 225.000000 225.000000"
 preserveAspectRatio="xMidYMid meet">

<g transform="translate(0.000000,225.000000) scale(0.100000,-0.100000)"
fill="#000000" stroke="none">
<path d="M1100 2050 c-20 -6 -21 -8 -5 -8 11 0 29 3 40 8 25 11 -1 11 -35 0z"/>
<path d="M1202 2034 c32 -10 58 -27 84 -57 20 -23 32 -33 26 -22 -25 48 -97
96 -140 94 -9 0 4 -7 30 -15z"/>
<path d="M1023 2019 c-30 -19 -73 -75 -73 -95 0 -5 11 9 24 30 13 21 41 49 62
62 21 13 35 24 29 24 -5 0 -24 -10 -42 -21z"/>
<path d="M942 1885 c0 -16 2 -22 5 -12 2 9 2 23 0 30 -3 6 -5 -1 -5 -18z"/>
<path d="M1332 1856 c-4 -108 -74 -185 -176 -194 -100 -8 -185 54 -206 149
l-9 44 3 -44 c5 -54 46 -107 107 -139 131 -69 298 38 286 184 l-3 49 -2 -49z"/>
<path d="M770 1600 c-35 -7 -35 -7 -5 -9 17 0 37 4 45 9 17 11 11 11 -40 0z"/>
<path d="M1400 1598 c-65 -10 -148 -47 -201 -88 l-38 -31 66 -87 c36 -48 68
-89 71 -92 15 -13 -36 61 -79 116 l-49 62 35 26 c162 124 385 115 504 -20 22
-26 41 -44 41 -40 0 17 -89 100 -130 121 -41 21 -65 27 -145 39 -11 2 -45 -1
-75 -6z"/>
<path d="M843 1593 c9 -2 25 -2 35 0 9 3 1 5 -18 5 -19 0 -27 -2 -17 -5z"/>
<path d="M683 1580 c-35 -14 -27 -20 10 -8 17 6 34 13 36 14 8 7 -24 3 -46 -6z"/>
<path d="M908 1583 c7 -3 16 -2 19 1 4 3 -2 6 -13 5 -11 0 -14 -3 -6 -6z"/>
<path d="M970 1566 c0 -2 7 -7 16 -10 8 -3 12 -2 9 4 -6 10 -25 14 -25 6z"/>
<path d="M609 1536 c-37 -25 -81 -83 -98 -129 -36 -94 9 -219 110 -311 76 -69
176 -124 192 -106 9 10 9 11 0 6 -19 -10 -122 48 -186 105 -156 138 -156 322
-2 436 40 30 29 29 -16 -1z"/>
<path d="M1058 1513 l51 -38 -27 -30 -27 -30 33 29 c17 17 32 31 32 32 0 5
-98 74 -105 74 -4 0 15 -17 43 -37z"/>
<path d="M1099 1413 c-52 -60 -123 -175 -194 -313 -36 -71 -65 -132 -65 -137
0 -4 23 -21 51 -38 28 -16 85 -66 127 -110 42 -44 67 -66 55 -50 -30 42 -141
147 -185 174 -21 12 -38 25 -38 28 0 2 30 63 67 136 68 134 164 287 203 322
21 19 21 19 46 -10 47 -57 132 -191 174 -272 39 -79 63 -114 37 -55 -60 133
-210 362 -238 362 -4 0 -22 -17 -40 -37z"/>
<path d="M1754 1417 c40 -127 -19 -264 -150 -352 -77 -52 -89 -63 -34 -34 61
33 152 126 181 185 27 56 33 164 11 199 -12 17 -13 17 -8 2z"/>
<path d="M1038 1393 c-18 -21 -31 -43 -25 -43 2 0 13 14 25 30 25 33 24 41 0
13z"/>
<path d="M973 1298 c-38 -61 -126 -228 -119 -228 3 0 22 32 41 70 20 39 53
100 75 135 22 36 38 65 35 65 -3 0 -17 -19 -32 -42z"/>
<path d="M1341 1215 c23 -44 46 -84 52 -90 14 -15 -59 127 -77 150 -9 11 2
-16 25 -60z"/>
<path d="M1400 1101 c0 -6 4 -13 10 -16 6 -3 7 1 4 9 -7 18 -14 21 -14 7z"/>
<path d="M1423 1065 c40 -92 48 -98 83 -69 18 14 18 15 -4 4 -25 -12 -52 1
-52 24 0 7 -7 21 -16 32 -8 10 -13 15 -11 9z"/>
<path d="M831 1033 c-10 -26 -10 -27 4 -9 8 11 15 23 15 28 0 15 -7 8 -19 -19z"/>
<path d="M1390 1046 c0 -11 30 -66 36 -66 2 0 -3 15 -12 33 -19 36 -24 44 -24
33z"/>
<path d="M1363 921 c-80 -56 -150 -131 -195 -209 -22 -39 -33 -50 -39 -40 -5
7 -9 9 -9 3 0 -5 4 -16 9 -23 6 -10 18 3 41 45 47 84 112 157 188 210 74 51
89 63 81 63 -3 0 -37 -22 -76 -49z"/>
<path d="M800 897 c-49 -122 -60 -152 -60 -161 1 -6 16 26 34 72 19 46 36 86
39 88 8 8 47 -14 98 -57 95 -79 195 -241 178 -286 -5 -14 -9 -32 -8 -41 0 -9
6 1 13 23 14 45 11 56 -43 150 -39 67 -146 179 -204 213 l-38 22 -9 -23z"/>
<path d="M1414 886 c-72 -49 -166 -155 -208 -236 -37 -69 -37 -69 -22 -117 8
-26 15 -41 15 -32 1 9 -4 30 -10 47 -9 27 -6 39 26 101 20 38 62 97 92 130 51
57 131 121 150 121 15 0 84 -192 106 -295 9 -39 16 -59 16 -46 2 45 -46 203
-96 319 l-18 42 -51 -34z"/>
<path d="M1100 710 c6 -11 13 -20 16 -20 2 0 0 9 -6 20 -6 11 -13 20 -16 20
-2 0 0 -9 6 -20z"/>
<path d="M714 653 c-27 -96 -27 -293 0 -343 22 -43 54 -78 81 -92 11 -5 5 2
-13 17 -63 52 -77 94 -77 235 0 91 5 141 18 184 10 32 16 60 14 63 -3 2 -13
-27 -23 -64z"/>
<path d="M1583 460 c0 -41 2 -58 4 -37 2 20 2 54 0 75 -2 20 -4 3 -4 -38z"/>
<path d="M1056 418 c-9 -40 -19 -82 -22 -93 -4 -15 -3 -17 4 -5 11 18 44 162
38 167 -2 3 -11 -29 -20 -69z"/>
<path d="M1201 470 c-1 -18 32 -143 48 -185 18 -44 60 -84 100 -95 19 -5 37
-8 39 -5 2 2 -14 8 -35 14 -68 18 -88 50 -128 201 -13 47 -24 78 -24 70z"/>
<path d="M1571 366 c-4 -60 -80 -146 -147 -166 -22 -6 -24 -8 -8 -9 38 -2 107
53 137 107 16 29 26 60 24 70 -4 15 -5 15 -6 -2z"/>
<path d="M998 254 c-19 -30 -37 -46 -60 -53 -23 -6 -26 -9 -12 -10 27 -1 70
32 90 71 24 46 12 41 -18 -8z"/>
<path d="M830 201 c8 -4 29 -11 45 -15 19 -4 25 -3 15 3 -8 4 -28 11 -45 15
-19 4 -25 3 -15 -3z"/>
</g>
</svg>
