<svg version="1.1" id="Layer_1" xmlns="http://www.w3.org/2000/svg" xmlns:xlink="http://www.w3.org/1999/xlink" x="0px" y="0px"
	 width="100%" viewBox="0 0 514 514" enable-background="new 0 0 514 514" xml:space="preserve">
<path fill="none" opacity="1.000000" stroke="none" 
	d="
M360.000000,515.000000 
	C240.029053,515.000000 120.558105,515.000000 1.043581,515.000000 
	C1.043581,343.737396 1.043581,172.474762 1.043581,1.106064 
	C172.220917,1.106064 343.441895,1.106064 514.831421,1.106064 
	C514.831421,172.333191 514.831421,343.666595 514.831421,515.000000 
	C463.474762,515.000000 411.987396,515.000000 360.000000,515.000000 
M204.883972,304.607452 
	C229.791183,321.093781 248.091827,343.244934 260.962372,371.331696 
	C269.056488,354.682220 278.052185,340.008575 290.093689,327.308716 
	C302.171417,314.570587 316.240173,304.525299 331.602203,295.779053 
	C311.111511,255.502075 293.007935,214.374573 260.983093,181.009552 
	C228.991821,214.528702 210.850220,255.611954 190.449921,295.629395 
	C195.332825,298.652679 199.807602,301.423279 204.883972,304.607452 
M217.142853,234.634735 
	C228.718521,214.427124 241.442551,195.024521 257.889648,177.970184 
	C254.364685,174.976746 251.566422,172.375000 248.542618,170.069031 
	C228.334152,154.657974 205.929260,145.703247 180.090714,147.892654 
	C158.882202,149.689728 140.992905,158.540665 127.340363,175.027145 
	C111.771614,193.827591 109.333603,214.652847 119.817566,236.555008 
	C133.512039,265.164246 158.830719,280.466797 186.614441,293.473297 
	C188.451370,289.866913 190.185226,286.378784 191.992493,282.929169 
	C200.304092,267.064423 208.636169,251.210403 217.142853,234.634735 
M405.965210,194.798935 
	C401.206573,181.659882 393.229980,170.950653 381.815735,162.843491 
	C358.332611,146.164215 332.852112,143.466217 305.912720,152.398697 
	C290.184326,157.613861 276.411591,166.176544 264.262054,178.139114 
	C296.280945,211.648651 314.643341,253.191879 335.476044,293.590057 
	C340.076111,291.239716 344.291382,289.026611 348.557617,286.916534 
	C366.183228,278.198883 381.571930,266.650726 393.544067,250.920288 
	C406.096222,234.427811 411.848450,216.300705 405.965210,194.798935 
M186.709854,468.997467 
	C188.691544,469.795593 190.651596,470.653259 192.658386,471.382324 
	C207.973389,476.946075 223.325638,472.862457 231.563019,458.939484 
	C235.538086,452.220764 238.678802,444.779144 240.862823,437.276398 
	C245.869919,420.075623 250.097229,402.646362 254.503555,385.274963 
	C254.863586,383.855591 254.534424,382.009979 253.920166,380.632294 
	C243.324112,356.867401 229.072495,335.710052 208.641953,319.261963 
	C201.651367,313.634064 193.918106,308.928680 185.617538,303.173157 
	C180.495865,316.045471 175.523163,327.324890 171.488937,338.930511 
	C162.451874,364.928192 154.888260,391.293854 157.016266,419.306702 
	C158.620743,440.427856 166.715042,457.880280 186.709854,468.997467 
M325.699127,472.377472 
	C342.390930,467.908661 353.566315,457.259583 359.990509,441.462402 
	C367.049225,424.104858 366.346741,406.074982 363.595032,388.112183 
	C360.492920,367.862061 354.454407,348.340546 346.979553,329.285828 
	C343.714478,320.962494 340.126465,312.765808 336.514496,304.102448 
	C333.650787,305.668579 331.627136,306.717529 329.658264,307.860718 
	C303.537506,323.026855 285.960358,345.834290 271.893280,371.927795 
	C268.014862,379.121979 266.105011,385.984802 270.105682,393.612823 
	C270.557465,394.474213 270.736603,395.488495 270.980530,396.447540 
	C274.992188,412.219055 278.286804,428.215546 283.162109,443.714935 
	C290.655823,467.538696 302.667999,475.378693 325.699127,472.377472 
M217.989563,71.699448 
	C214.635803,79.075302 213.508972,86.798210 213.867172,94.881844 
	C215.161865,124.098793 245.307007,145.426849 273.442352,137.450241 
	C293.831085,131.669846 310.081696,111.825539 308.133301,88.015434 
	C305.985596,61.768990 284.774994,43.426174 259.461060,44.257233 
	C241.039581,44.862007 226.847275,54.116062 217.989563,71.699448 
z"/>
<path fill="#FF6700" opacity="1.000000" stroke="none" 
	d="
M204.583191,304.400635 
	C199.807602,301.423279 195.332825,298.652679 190.449921,295.629395 
	C210.850220,255.611954 228.991821,214.528702 260.983093,181.009552 
	C293.007935,214.374573 311.111511,255.502075 331.602203,295.779053 
	C316.240173,304.525299 302.171417,314.570587 290.093689,327.308716 
	C278.052185,340.008575 269.056488,354.682220 260.962372,371.331696 
	C248.091827,343.244934 229.791183,321.093781 204.583191,304.400635 
z"/>
<path fill="#FF6700" opacity="1.000000" stroke="none" 
	d="
M217.051880,234.993637 
	C208.636169,251.210403 200.304092,267.064423 191.992493,282.929169 
	C190.185226,286.378784 188.451370,289.866913 186.614441,293.473297 
	C158.830719,280.466797 133.512039,265.164246 119.817566,236.555008 
	C109.333603,214.652847 111.771614,193.827591 127.340363,175.027145 
	C140.992905,158.540665 158.882202,149.689728 180.090714,147.892654 
	C205.929260,145.703247 228.334152,154.657974 248.542618,170.069031 
	C251.566422,172.375000 254.364685,174.976746 257.889648,177.970184 
	C241.442551,195.024521 228.718521,214.427124 217.051880,234.993637 
z"/>
<path fill="#FF6700" opacity="1.000000" stroke="none" 
	d="
M405.999695,195.205597 
	C411.848450,216.300705 406.096222,234.427811 393.544067,250.920288 
	C381.571930,266.650726 366.183228,278.198883 348.557617,286.916534 
	C344.291382,289.026611 340.076111,291.239716 335.476044,293.590057 
	C314.643341,253.191879 296.280945,211.648651 264.262054,178.139114 
	C276.411591,166.176544 290.184326,157.613861 305.912720,152.398697 
	C332.852112,143.466217 358.332611,146.164215 381.815735,162.843491 
	C393.229980,170.950653 401.206573,181.659882 405.999695,195.205597 
z"/>
<path fill="#FF6700" opacity="1.000000" stroke="none" 
	d="
M186.369659,468.829895 
	C166.715042,457.880280 158.620743,440.427856 157.016266,419.306702 
	C154.888260,391.293854 162.451874,364.928192 171.488937,338.930511 
	C175.523163,327.324890 180.495865,316.045471 185.617538,303.173157 
	C193.918106,308.928680 201.651367,313.634064 208.641953,319.261963 
	C229.072495,335.710052 243.324112,356.867401 253.920166,380.632294 
	C254.534424,382.009979 254.863586,383.855591 254.503555,385.274963 
	C250.097229,402.646362 245.869919,420.075623 240.862823,437.276398 
	C238.678802,444.779144 235.538086,452.220764 231.563019,458.939484 
	C223.325638,472.862457 207.973389,476.946075 192.658386,471.382324 
	C190.651596,470.653259 188.691544,469.795593 186.369659,468.829895 
z"/>
<path fill="#FF6700" opacity="1.000000" stroke="none" 
	d="
M325.330139,472.574341 
	C302.667999,475.378693 290.655823,467.538696 283.162109,443.714935 
	C278.286804,428.215546 274.992188,412.219055 270.980530,396.447540 
	C270.736603,395.488495 270.557465,394.474213 270.105682,393.612823 
	C266.105011,385.984802 268.014862,379.121979 271.893280,371.927795 
	C285.960358,345.834290 303.537506,323.026855 329.658264,307.860718 
	C331.627136,306.717529 333.650787,305.668579 336.514496,304.102448 
	C340.126465,312.765808 343.714478,320.962494 346.979553,329.285828 
	C354.454407,348.340546 360.492920,367.862061 363.595032,388.112183 
	C366.346741,406.074982 367.049225,424.104858 359.990509,441.462402 
	C353.566315,457.259583 342.390930,467.908661 325.330139,472.574341 
z"/>
<path fill="#FF6700" opacity="1.000000" stroke="none" 
	d="
M218.149841,71.352173 
	C226.847275,54.116062 241.039581,44.862007 259.461060,44.257233 
	C284.774994,43.426174 305.985596,61.768990 308.133301,88.015434 
	C310.081696,111.825539 293.831085,131.669846 273.442352,137.450241 
	C245.307007,145.426849 215.161865,124.098793 213.867172,94.881844 
	C213.508972,86.798210 214.635803,79.075302 218.149841,71.352173 
z"/>
</svg>